<?xml version="1.0" encoding="UTF-8" standalone="no"?>
<!-- Created with Inkscape (http://www.inkscape.org/) -->

<svg
   version="1.1"
   id="svg1"
   width="176"
   height="176"
   viewBox="0 0 176 176"
   sodipodi:docname="logo.svg"
   inkscape:export-filename="maskable_icon"
   inkscape:export-xdpi="104.72727"
   inkscape:export-ydpi="104.72727"
   inkscape:version="1.3.2 (091e20e, 2023-11-25, custom)"
   xmlns:inkscape="http://www.inkscape.org/namespaces/inkscape"
   xmlns:sodipodi="http://sodipodi.sourceforge.net/DTD/sodipodi-0.dtd"
   xmlns="http://www.w3.org/2000/svg"
   xmlns:svg="http://www.w3.org/2000/svg">
  <defs
     id="defs1" />
  <sodipodi:namedview
     id="namedview1"
     pagecolor="#ffffff"
     bordercolor="#000000"
     borderopacity="0.25"
     inkscape:showpageshadow="2"
     inkscape:pageopacity="0.0"
     inkscape:pagecheckerboard="0"
     inkscape:deskcolor="#d1d1d1"
     inkscape:zoom="5.0625"
     inkscape:cx="88.197531"
     inkscape:cy="56.395062"
     inkscape:window-width="1920"
     inkscape:window-height="1129"
     inkscape:window-x="-8"
     inkscape:window-y="55"
     inkscape:window-maximized="1"
     inkscape:current-layer="g1" />
  <g
     inkscape:groupmode="layer"
     inkscape:label="Image"
     id="g1">
    <rect
       style="fill:#ffffff;fill-opacity:1;stroke-width:1.16729"
       id="rect8"
       width="141.43211"
       height="141.03703"
       x="17.283943"
       y="17.481483" />
    <g
       id="g5"
       style="fill:#b47d75;fill-opacity:1">
      <path
         style="fill:#b47d75;fill-opacity:1"
         d="M 0,88 V 0 h 88 88 v 88 88 H 88 0 Z m 94.100777,55.86589 C 100.77314,141.63974 107,133.75492 107,127.53212 c 0,-2.09429 0.4755,-2.53308 2.75,-2.5377 11.55457,-0.0234 20.80121,-9.48741 20.11837,-20.59126 -0.22165,-3.60452 0.19301,-4.658079 2.78711,-7.081334 4.54609,-4.246681 6.72734,-9.099256 6.67413,-14.847772 -0.0548,-5.923632 -1.98591,-10.087065 -6.52853,-14.07561 -2.98439,-2.620384 -3.2719,-3.352544 -2.99696,-7.631894 0.3902,-6.073457 -2.44876,-12.630985 -6.95707,-16.069637 -3.7865,-2.888108 -11.24946,-4.927452 -14.71526,-4.021125 -1.71745,0.449122 -3.16859,-0.28043 -5.95151,-2.992097 -9.040091,-8.808603 -20.139644,-8.908017 -28.216756,-0.252724 -2.946276,3.157178 -3.942842,3.636516 -6.673065,3.209679 -11.230844,-1.755809 -21.86378,8.259624 -21.125638,19.898774 0.304433,4.800359 0.08868,5.450617 -2.352055,7.088832 -3.419904,2.29543 -6.543249,7.834088 -7.384505,13.095014 -0.808107,5.053624 2.985497,14.191282 6.977632,16.807029 C 45.670359,99.014031 46,99.919369 46,104.65485 c 0,11.60302 8.674703,20.3161 20.25,20.33957 2.2745,0.005 2.75,0.44341 2.75,2.5377 0,3.85312 2.366142,8.70009 5.854307,11.99236 5.322392,5.02348 12.410153,6.62226 19.24647,4.34141 z M 81.298549,137.04048 C 75.881626,133.73759 75,130.7402 75,115.62639 75,102.7029 74.897724,102.0319 72.492104,99.172986 70.085605,96.313024 69.603303,96.178522 60.563038,95.846261 49.851014,95.452557 46.801647,93.987397 43.694242,87.741143 40.289391,80.896987 44.315613,72.117525 51.814276,70.034833 53.841424,69.47181 58.65,68.994333 62.5,68.973774 c 10.468695,-0.0559 12.497892,-2.434715 12.503738,-14.658033 0.0029,-5.98694 0.460495,-8.564847 1.955778,-11.017192 5.056735,-8.293324 17.024233,-8.293324 22.080968,0 1.494376,2.450854 1.952916,5.030123 1.955776,11.001111 0.004,8.764442 1.73326,13.400183 5.27193,14.134483 1.22749,0.254714 5.90637,0.63462 10.3975,0.844234 11.80887,0.551154 16.66764,4.439521 16.66764,13.338747 0,8.922509 -6.21437,13.378851 -18.66025,13.381322 -7.31651,0.0015 -8.01755,0.192178 -10.75,2.924631 L 101,101.84615 l -0.004,13.82693 c -0.003,11.94949 -0.26879,14.26162 -1.955776,17.02837 -3.729734,6.11697 -11.649445,8.05384 -17.741935,4.33903 z M 94.768471,100.45227 C 111.57564,93.42979 110.79162,69.579214 93.585642,64.469589 80.976811,60.725169 69,69.452717 69,82.38524 c 0,8.197299 3.894336,14.197589 11.5,17.7189 4.909338,2.27295 9.399539,2.3825 14.268471,0.34813 z M 82.121495,94.29009 C 77.955619,92.237834 75.008693,87.605738 75.003738,83.102117 L 75,79.704234 77.280015,83.087548 C 80.030546,87.16906 83.313171,88.970516 88,88.970516 c 4.686829,0 7.969454,-1.801456 10.719985,-5.882968 L 101,79.704234 l -0.004,3.397883 c -0.005,4.57612 -3.001471,9.197942 -7.279329,11.227918 -4.404684,2.09016 -7.291724,2.080214 -11.595436,-0.03994 z M 83,81 c -4.205904,-4.205904 -1.06145,-11.333333 5,-11.333333 6.06145,0 9.205904,7.127429 5,11.333333 -1.111111,1.111111 -3.333333,2 -5,2 -1.666667,0 -3.888889,-0.888889 -5,-2 z m -23.878505,36.31466 c -4.290475,-2.14484 -7.112966,-6.74675 -7.117757,-11.6051 L 52,101.91912 60.25,102.20956 68.5,102.5 v 8 8 l -3,0.2518 c -1.65,0.13849 -4.520327,-0.50822 -6.378505,-1.43714 z m 48.346015,0.46127 c -0.31117,-0.8109 -0.43116,-4.57971 -0.26664,-8.37514 L 107.5,102.5 l 8.25,-0.29044 8.25,-0.29044 -0.007,3.79044 c -0.0116,6.67421 -4.6662,11.73476 -11.85,12.8835 -3.13998,0.5021 -4.24368,0.30923 -4.6759,-0.81713 z M 52.413571,63.083333 C 52.186107,62.854167 52,60.957325 52,58.86813 c 0,-6.812898 8.653845,-13.817436 15.015574,-12.153806 1.891496,0.494637 2.039764,1.176789 1.774203,8.162709 L 68.5,62.5 60.663571,63 c -4.310036,0.275 -8.022536,0.3125 -8.25,0.08333 z M 115,63.000807 107.5,62.5 107.21022,54.877033 c -0.26556,-6.98592 -0.11729,-7.668072 1.77421,-8.162709 6.28106,-1.642536 13.93213,4.36582 14.7452,11.579351 0.27561,2.445131 0.11168,4.617199 -0.36427,4.826817 -0.47595,0.209617 -4.24036,0.15576 -8.36536,-0.119685 z"
         id="path8" />
      <path
         style="fill:#b47d75;fill-opacity:1"
         d="M 0,88 V 0 h 88 88 v 88 88 H 88 0 Z m 96.750259,54.87885 c 5.191841,-2.51333 9.196171,-8.06056 9.966971,-13.80734 0.5239,-3.90595 0.69324,-4.0724 4.16444,-4.09347 7.10866,-0.0431 15.61452,-5.83464 18.05471,-12.29314 0.58499,-1.5483 1.06362,-5.0358 1.06362,-7.75 0,-4.38518 0.42547,-5.360369 3.8195,-8.754403 4.28262,-4.282621 6.80225,-11.321763 5.8166,-16.249997 -1.01302,-5.065084 -3.6974,-9.837964 -6.75939,-12.018288 C 130.30783,66.083005 130,65.278296 130,60.392068 130,48.159914 119.42722,38.384064 108.42931,40.447284 c -2.80145,0.525555 -3.5427,0.20221 -5.34776,-2.332752 -1.15253,-1.618582 -4.034444,-3.881499 -6.404254,-5.028704 -7.897161,-3.82295 -16.975243,-2.189896 -22.862833,4.11279 -2.69333,2.883219 -3.63016,3.238594 -8.712401,3.304945 -6.699603,0.08747 -10.968901,2.238175 -15.451014,7.783628 -2.559222,3.166374 -3.129755,4.867006 -3.480441,10.374418 -0.382615,6.008851 -0.743881,6.911665 -4.114528,10.282312 -4.39324,4.39324 -6.576363,11.017069 -5.578232,16.924954 0.70957,4.199914 5.504388,11.803342 8.062328,12.784915 1.027008,0.3941 1.459825,2.13984 1.459825,5.8881 0,2.93035 0.478628,6.59471 1.063618,8.14301 2.459904,6.51068 10.951757,12.25077 18.186382,12.29314 3.572294,0.0209 3.75,0.17854 3.75,3.32618 0,1.92056 1.202385,5.20018 2.871329,7.83184 5.258461,8.29173 15.785545,11.14482 24.87893,6.74279 z M 82.269695,137.51741 C 76.249467,134.90025 75.007969,131.25516 75.003738,116.18426 74.998514,97.576335 73.99751,96.08236 61.5,96.030249 48.821082,95.977382 42.833333,91.714849 42.833333,82.741901 42.833333,73.883574 47.755387,70 58.982459,70 c 7.834758,0 13.28941,-1.770958 14.93705,-4.8496 0.59427,-1.110405 1.082173,-5.761001 1.084229,-10.334659 0.0044,-9.77192 1.969677,-14.071033 7.48604,-16.375917 4.466651,-1.866286 6.915026,-1.816098 11.227153,0.230141 5.566172,2.641321 7.274969,6.431474 7.279329,16.145776 0.002,4.573658 0.48996,9.224254 1.08423,10.334659 1.64764,3.078642 7.10229,4.8496 14.93705,4.8496 4.37418,0 8.20332,0.579972 10.01519,1.516927 6.21486,3.213825 8.00422,13.123709 3.44822,19.096939 -3.0126,3.949719 -7.41617,5.372835 -16.64916,5.380557 -3.66752,0.0031 -7.39666,0.285109 -8.28699,0.626758 -3.48013,1.335451 -4.54474,5.803199 -4.54635,19.079159 -0.002,14.71388 -1.208884,18.42441 -6.982848,21.46485 -4.123503,2.17135 -7.339555,2.26779 -11.745907,0.35222 z m 13.238882,-37.38239 c 14.263043,-6.479566 15.529443,-26.059931 2.209389,-34.160341 -7.120631,-4.330314 -16.163249,-3.277507 -22.71886,2.645094 -4.704647,4.250366 -6.374049,8.845364 -5.786716,15.927828 1.086207,13.098231 14.401509,20.991059 26.296187,15.587419 z M 82.424139,94.104894 C 77.953936,92.07461 74.95361,87.282722 75.063386,82.348871 c 0.05659,-2.543214 0.153734,-2.625539 0.905467,-0.767309 2.956644,7.308612 13.921042,9.906298 20.048955,4.75 1.744193,-1.467642 3.550195,-3.605142 4.013342,-4.75 0.75173,-1.85823 0.84888,-1.775905 0.90546,0.767309 0.1084,4.871663 -2.744459,9.379698 -7.3453,11.606927 -5.135585,2.486094 -5.996356,2.497586 -11.167171,0.149096 z M 83.07258,80.365141 C 80.466434,77.051964 80.444771,74.555229 83,72 86.865386,68.134614 95,70.754733 95,75.865141 95,79.071307 91.145565,83 88,83 86.10694,83 84.44692,82.112331 83.07258,80.365141 Z M 61.462438,117.9352 c -4.8277,-1.40225 -8.610531,-6.06946 -9.20676,-11.35919 L 51.739895,102 h 8.023064 c 6.393494,0 8.146349,0.32128 8.630052,1.58179 C 69.354859,106.08832 69.09774,118 68.081787,118 c -0.505016,0 -1.517516,0.18393 -2.25,0.40874 -0.732483,0.22481 -2.69869,0.0117 -4.369349,-0.47354 z M 108.75,118.31067 C 107.31526,117.93574 107,116.71033 107,111.50846 107,101.94375 106.94535,102 116.23704,102 h 8.02306 l -0.51423,4.56227 c -0.58194,5.163 -3.46952,8.9386 -8.46375,11.06661 -3.32739,1.41778 -3.60493,1.44675 -6.53212,0.68179 z M 52.271417,58.284349 c 0.42541,-3.774222 1.246999,-5.371336 4.115368,-8 C 59.331101,47.586084 60.776264,47 64.485315,47 H 69 v 6.418213 C 69,63.065068 69.062727,63 59.762959,63 h -8.023064 z m 55.395253,4.048984 C 107.3,61.966667 107,58.366667 107,54.333333 V 47 h 4.36514 C 118.2891,47 124,52.853501 124,59.95034 V 63 h -7.83333 c -4.30834,0 -8.13334,-0.3 -8.5,-0.666667 z"
         id="path7" />
      <path
         style="fill:#b47d75;fill-opacity:1"
         d="M 0,88 V 0 h 88 88 v 88 88 H 88 0 Z m 98.257565,54.05161 c 4.920715,-3.12062 8.669765,-8.92628 9.036315,-13.99331 0.19368,-2.67745 0.51898,-2.87539 5.39166,-3.28076 C 122.79087,123.93686 130,116.00834 130,105.73527 c 0,-5.34737 0.27703,-6.097496 3.1423,-8.50846 3.91394,-3.293362 6.80692,-9.498138 6.83574,-14.661086 0.0278,-4.984243 -3.35439,-12.044767 -7.0944,-14.809873 C 130.33115,65.86871 130,65.010193 130,60.279823 c 0,-6.779816 -1.76488,-10.988192 -6.26527,-14.939587 -4.4183,-3.879313 -9.80126,-5.728779 -14.74423,-5.065787 -3.29211,0.441564 -4.04958,0.136922 -5.90735,-2.375859 -6.727657,-9.099637 -23.438643,-9.099637 -30.166295,0 -1.85778,2.512781 -2.615244,2.817423 -5.90735,2.375859 -4.909381,-0.658486 -10.31981,1.181094 -14.646358,4.979854 -4.912631,4.313346 -6.686134,8.297597 -6.626118,14.885857 0.04673,5.129537 -0.219072,5.840113 -2.935943,7.848782 -3.729458,2.757308 -6.757162,9.259326 -6.757162,14.511058 0,5.140907 2.857613,11.397917 6.670921,14.606604 2.67542,2.251218 2.999441,3.129156 2.999441,8.127006 0,10.43177 7.215428,18.57278 17.321867,19.54389 4.752867,0.45669 4.794297,0.49213 5.950216,5.09119 2.387683,9.49988 9.35139,15.0098 19.06785,15.08711 4.478578,0.0356 6.454579,-0.52679 10.203346,-2.90419 z M 82.424139,137.10489 C 76.111123,134.23764 75,130.88589 75,114.70965 75,96.985546 74.846685,96.766508 61.85048,95.923242 51.272006,95.236852 46.807428,93.462073 44.516927,89.032733 41.499972,83.198586 43.378518,74.549014 48.26035,71.796521 49.492158,71.102 54.938419,70.28726 60.363153,69.985988 c 9.221835,-0.512149 10.01835,-0.728192 12.25,-3.32264 C 74.7098,64.225851 75,62.890295 75,55.678635 c 0,-9.666392 1.836619,-14.049148 7.061664,-16.85137 4.254304,-2.281608 6.368699,-2.26915 11.514197,0.06784 C 99.193906,41.446719 101,45.570263 101,55.845365 c 0,7.035922 0.29889,8.390587 2.38685,10.817983 2.2317,2.594505 3.02796,2.810459 12.25,3.322311 5.90372,0.327675 10.71962,1.10995 11.99666,1.948689 5.09012,3.343097 6.87138,11.254827 3.84956,17.098385 -2.2905,4.42934 -6.75508,6.204119 -17.33355,6.890509 C 101.15332,96.766508 101,96.985546 101,114.70965 c 0,16.12239 -1.007405,19.14734 -7.40869,22.24615 -5.135585,2.48609 -5.996356,2.49758 -11.167171,0.14909 z M 98.742721,98.678295 c 5.485559,-3.801493 8.529869,-9.618358 8.470859,-16.185534 -0.0531,-5.906527 -1.68556,-9.710942 -5.8743,-13.689713 -5.807694,-5.516569 -13.300609,-7.099207 -20.121399,-4.25 -12.304647,5.139945 -16.379286,18.527384 -8.970007,29.47143 5.506161,8.133002 18.245444,10.370652 26.494847,4.653817 z M 84.462438,94.911532 C 80.049913,93.664255 76.021346,89.004186 75.380632,84.406099 L 74.836343,80.5 l 2.14228,3.190379 c 1.301252,1.937882 3.885184,3.856 6.581829,4.885858 4.173756,1.593972 4.70534,1.593972 8.879096,0 2.774337,-1.059529 5.206075,-2.892144 6.483153,-4.885858 C 100.9209,80.57089 100.9666,80.555549 100.97942,83 c 0.0397,7.570959 -8.946438,14.051478 -16.516982,11.911532 z M 84.762263,81.95052 c -3.062601,-1.826163 -4.066955,-4.800714 -2.719414,-8.053967 2.187762,-5.281724 9.767011,-5.184018 11.978263,0.154415 1.123107,2.711421 1.037412,3.395114 -0.722308,5.76272 -2.153499,2.897414 -5.75084,3.797886 -8.536541,2.136832 z M 57.614879,115.9117 C 54.214833,113.23723 52,108.93602 52,105.0076 v -3.09173 l 7.75,0.29207 7.75,0.29206 0.292064,7.75 0.292065,7.75 h -3.907206 c -2.448077,0 -4.898643,-0.77986 -6.562044,-2.0883 z M 108.20794,110.25 108.5,102.5 l 7.26446,-0.2941 c 8.38033,-0.33928 9.25008,0.4645 7.35327,6.79547 C 121.52543,114.316 116.92525,118 111.88121,118 h -3.96534 z M 52,60.467881 c 0,-7.161965 6.074505,-13.454448 13,-13.466492 l 3.5,-0.0061 -0.326147,8.002349 L 67.847706,63 H 59.923853 C 52.111607,63 52,62.964335 52,60.467881 Z m 55.82615,-5.47023 -0.32615,-8.002349 3.60212,0.0023 c 5.08732,0.0033 10.07784,3.649231 11.81398,8.630914 C 125.17166,62.100711 124.28004,63 115.60753,63 h -7.45524 z"
         id="path6" />
      <path
         style="fill:#b47d75;fill-opacity:1"
         d="M 0,88 V 0 h 88 88 v 88 88 H 88 0 Z m 95.582672,62.75 c 0.412864,-0.4125 -0.111839,-0.75689 -1.166005,-0.76531 -1.126064,-0.009 -1.474091,-0.31837 -0.843725,-0.75 0.590117,-0.40408 1.3547,-1.49927 1.699072,-2.43376 0.446637,-1.212 0.210724,-1.53967 -0.822942,-1.14301 C 93.652083,145.96375 93,146.61583 93,147.10699 93,147.59814 92.298442,148 91.440983,148 c -0.857459,0 -1.312521,0.39884 -1.011247,0.88631 0.779605,1.26143 -2.476188,1.87981 -5.429736,1.03128 -2.451867,-0.7044 -2.455544,-0.72015 -0.190983,-0.81791 C 86.078976,149.04486 86.839919,148.55 86.5,148 c -0.35533,-0.57494 0.57598,-1.00651 2.190983,-1.01531 C 90.872088,146.9728 91.164698,146.75269 90,146 c -1.208748,-0.78115 -1.055386,-0.97235 0.789838,-0.98469 3.887802,-0.026 10.092302,-3.86992 13.223562,-8.19251 2.63972,-3.64402 3.50094,-4.08026 3.10502,-1.5728 -0.0651,0.4125 0.33158,0.75 0.88158,0.75 0.55,0 1,-0.675 1,-1.5 0,-0.825 0.45,-1.5 1,-1.5 0.55,0 1,0.75 1,1.66667 0,0.91666 0.26609,1.40058 0.59131,1.07536 0.32521,-0.32522 0.28183,-1.56636 -0.0964,-2.75809 -0.49416,-1.55697 -1.25129,-2.0194 -2.69022,-1.64311 -1.65949,0.43396 -1.90225,0.14986 -1.41725,-1.65858 0.32189,-1.20024 0.59141,-2.74475 0.59892,-3.43225 0.008,-0.77764 1.44531,-1.25 3.80221,-1.25 2.08371,0 5.45371,-0.84894 7.48889,-1.88654 2.03519,-1.03759 3.4177,-1.42922 3.07225,-0.87027 -0.3465,0.56065 -0.005,0.80867 0.7611,0.55321 0.76406,-0.25469 1.3892,-1.00448 1.3892,-1.66621 0,-0.66173 0.47345,-1.52423 1.0521,-1.91666 2.32264,-1.57519 4.83346,-8.91033 4.85457,-14.18223 0.0195,-4.87809 0.36475,-5.769722 3.19656,-8.256083 C 137.61443,93.253337 140,88.272682 140,83.419869 140,79.286236 141.93107,73 143.20089,73 143.6404,73 144,72.592129 144,72.09362 c 0,-0.49851 -0.89494,-0.672349 -1.98875,-0.38631 -1.09382,0.286039 -1.74446,0.915346 -1.44588,1.39846 0.29858,0.483115 0.12211,1.630256 -0.39216,2.549204 -0.81601,1.458133 -1.03252,1.363672 -1.70086,-0.74208 C 138.05115,73.585802 137.84804,72.5 138.021,72.5 c 0.17296,0 -1.22351,-1.592107 -3.10327,-3.538016 C 133.03798,67.016074 131.1625,65.580132 130.75,65.771001 130.3375,65.961869 130,65.191476 130,64.059017 130,62.926558 130.27274,62 130.60608,62 c 0.93175,0 4.9268,5.360056 4.64392,6.230622 C 135.1125,68.65378 135.675,69 136.5,69 c 0.825,0 1.5,-0.45 1.5,-1 0,-0.55 0.675,-1 1.5,-1 2.43183,0 1.71445,-1.729361 -1,-2.410644 -1.375,-0.345103 -2.55743,-1.181387 -2.62762,-1.858408 -0.0702,-0.677021 -0.23444,-2.25769 -0.36499,-3.512597 -0.13054,-1.254907 -0.57423,-2.604907 -0.98598,-3 -0.41174,-0.395093 -0.5731,1.194149 -0.35859,3.531649 0.21452,2.3375 0.11668,4.25 -0.21741,4.25 -1.16358,0 -3.22789,-4.916059 -3.33627,-7.945179 -0.06,-1.677643 -0.41632,-3.051286 -0.79175,-3.052541 -0.37544,-0.0013 -0.94939,-0.842821 -1.27545,-1.870149 -0.32606,-1.027329 -2.49389,-3.856775 -4.81739,-6.287659 L 119.5,40.424684 l -7.16071,0.03766 c -3.93839,0.02071 -6.99479,-0.130948 -6.79199,-0.33702 C 106.57392,39.082125 96.08078,31.885949 92.75,31.34896 90.6875,31.016443 89,30.296797 89,29.749747 c 0,-0.551007 -0.664947,-0.44278 -1.490841,0.242652 -0.819963,0.680508 -2.841521,1.039051 -4.492351,0.79676 -1.650831,-0.24229 -2.795083,-0.2341 -2.542782,0.0182 0.464927,0.464927 -6.005482,5.663602 -9.867275,7.927899 -1.158713,0.679392 -3.764956,1.241892 -5.791651,1.25 -2.026696,0.0081 -4.876958,0.467961 -6.333916,1.021896 -1.456959,0.553935 -3.173754,0.679453 -3.8151,0.27893 -0.641346,-0.400523 -2.013992,-0.860138 -3.050324,-1.021366 -1.484047,-0.230882 -1.645181,-0.0051 -0.758675,1.063079 0.619059,0.745922 1.016967,1.545205 0.884239,1.776186 -0.132728,0.23098 0.277976,-0.174852 0.912675,-0.90185 0.712987,-0.81667 1.388161,-0.942934 1.76673,-0.330396 1.004928,1.626008 -3.537315,4.276395 -5.102579,2.977341 C 47.670445,43.481604 47.568296,45.168296 49.2,46.8 c 1.177919,1.177919 1.045616,1.323526 -1.431099,1.575 -0.677105,0.06875 -1.275132,1.025 -1.32895,2.125 -0.05382,1.1 -0.181457,3.125 -0.283643,4.5 l -0.185792,2.5 -1.235258,-2.387802 C 43.051317,51.857074 41.50977,51.921805 41.453534,55.25 c -0.05534,3.27499 1.509253,3.754991 1.629779,0.5 0.04582,-1.2375 0.726202,0.40712 1.511954,3.654712 0.785753,3.247592 1.310763,5.965368 1.166688,6.039503 C 44.728821,65.97582 38.047359,72 38.490884,72 c 0.308262,0 -0.12608,1.327653 -0.965204,2.95034 -1.888177,3.651332 -1.972308,11.044965 -0.174636,15.347402 0.743075,1.778427 2.915373,4.607002 4.827329,6.285722 3.225126,2.831699 3.464553,3.445236 3.313905,8.491906 -0.08931,2.99183 -0.70244,6.4488 -1.362513,7.68216 C 43.128625,114.62818 43.184179,115 44.464816,115 45.309167,115 46,114.21952 46,113.2656 c 0,-1.01641 0.767275,-0.29196 1.853462,1.75 2.702872,5.08124 8.987077,9.16658 14.987193,9.74311 4.816624,0.46282 5.003537,0.59868 5.654281,4.10996 1.414684,7.63336 8.113505,14.7067 14.983898,15.82161 3.300548,0.5356 3.51164,0.74782 2.124087,2.13537 -1.387554,1.38755 -1.758121,1.34855 -3.728785,-0.39249 L 79.686016,144.5 80.329354,147 c 0.353835,1.375 0.649651,2.95 0.657368,3.5 0.01624,1.15738 13.457351,1.3876 14.59595,0.25 z m -7.849339,-12.87409 c 0.678334,-0.68342 1.485241,-0.99067 1.793128,-0.68278 0.307888,0.30789 -0.247112,0.86705 -1.233333,1.24258 -1.425198,0.54268 -1.540062,0.42782 -0.559795,-0.5598 z m -4.137841,-1.03042 c 0.455258,-0.73662 0.272832,-0.88214 -0.503997,-0.40204 -1.589326,0.98226 -5.012632,-2.10547 -6.668165,-6.01451 -0.829805,-1.95933 -1.374038,-8.37458 -1.503398,-17.72162 -0.111518,-8.05781 -0.538136,-14.443283 -0.948039,-14.189949 -1.019543,0.630112 -3.1227,-2.03323 -2.274989,-2.880942 0.373753,-0.373753 -0.368046,-0.557349 -1.648444,-0.40799 -1.280397,0.149358 -2.543341,-0.338161 -2.806541,-1.083378 -0.353454,-1.00076 0.107913,-1.168804 1.764998,-0.642866 1.711986,0.543364 2.071334,0.390531 1.516701,-0.645061 -0.399763,-0.746424 0.486261,0.117839 1.968941,1.920585 3.825276,4.651034 9.40271,7.219311 15.717603,7.237591 3.6484,0.0106 4.834117,0.30353 3.821193,0.94415 -1.041305,0.65857 -0.424947,0.87234 2.118242,0.73469 2.296479,-0.1243 3.424637,-0.62113 3.135887,-1.38101 -0.248051,-0.65277 -1.20126,-0.96384 -2.118243,-0.69126 -0.916982,0.27257 -0.06016,-0.40033 1.904051,-1.49535 1.964211,-1.09502 4.152698,-2.691496 4.863308,-3.547727 0.71061,-0.85623 1.65993,-1.329396 2.10961,-1.051481 0.44968,0.277916 1.10025,0.04796 1.44571,-0.51101 C 105.83538,94.45734 105.56648,94 104.89235,94 c -0.67413,0 -0.89468,-0.331007 -0.49011,-0.73557 1.06147,-1.061472 6.67484,-1.19817 6.02501,-0.146722 -0.29991,0.48526 2.06877,0.811595 5.26373,0.725188 L 121.5,93.685793 116.5,93 l -5,-0.685793 4.55,-0.157103 c 2.5025,-0.08641 5.15602,0.405396 5.8967,1.092896 1.08875,1.010568 1.19437,0.982796 0.55138,-0.144989 -0.61555,-1.079657 -0.21626,-1.284292 1.7664,-0.905282 2.13214,0.407584 2.6443,0.05777 3.05411,-2.085995 0.46416,-2.428088 0.41183,-2.465545 -0.91311,-0.653588 C 125.32004,90.944581 125,91.035128 125,89.857796 c 0,-0.838454 -0.6321,-1.524463 -1.40466,-1.524463 -0.77256,0 -1.17442,0.6 -0.89301,1.333334 C 122.98374,90.4 122.76398,91 122.21398,91 c -0.55,0 -1.25902,-0.675 -1.57561,-1.5 -0.40376,-1.052181 -1.85379,-1.447842 -4.85699,-1.325293 l -4.28138,0.174707 4.25,0.382791 C 121.71615,89.269567 121.06223,91 114.89301,91 c -4.04893,0 -4.99178,-0.300216 -4.55093,-1.449072 0.36324,-0.946572 0.0755,-1.264648 -0.82987,-0.917242 -0.76226,0.292508 -1.26309,1.05709 -1.11296,1.699073 0.15013,0.641982 0.0833,0.826937 -0.14856,0.41101 -0.23183,-0.415926 -0.90955,-0.454606 -1.50604,-0.08595 -0.7001,0.432686 -0.84706,0.05144 -0.41459,-1.075557 C 106.69853,88.62205 107,87.396672 107,86.859196 c 0,-0.537477 0.46534,-0.689637 1.03408,-0.338135 1.14351,0.706727 0.88726,-1.413539 -1.02871,-8.511893 -1.48792,-5.512504 -4.16389,-9.39902 -8.053417,-11.696621 C 97.328379,65.353478 96,64.021133 96,63.35178 c 0,-1.653059 -3.662966,-2.722516 -8.5,-2.481701 -5.256736,0.26171 -7.5,0.996532 -7.5,2.456762 0,1.674683 -3.834313,3.882726 -5.290677,3.046711 -0.665128,-0.381812 -0.891284,-0.341517 -0.502569,0.08954 0.388714,0.43106 -0.398786,2.233183 -1.75,4.004716 C 71.105539,72.239345 70,74.208806 70,74.844391 c 0,0.635585 -0.3375,1.155971 -0.75,1.156413 -1.221905,0.0013 -1.39959,8.475546 -0.241576,11.521353 0.809429,2.12896 0.76311,3.001009 -0.190709,3.590501 -0.692887,0.428228 -1.484794,0.553596 -1.759794,0.278596 -0.275,-0.275 0.161968,-0.918641 0.971039,-1.430314 1.245032,-0.787382 1.21124,-0.932667 -0.219943,-0.945627 -0.930041,-0.0084 -2.016361,-0.541785 -2.414045,-1.185252 -0.486179,-0.786654 -0.177903,-0.960742 0.940983,-0.531385 2.05012,0.786705 2.066885,0.381011 0.138365,-3.348336 C 65.599792,82.259189 65.386394,81 65.97432,81 66.538444,81 67,79.95 67,78.666667 c 0,-1.283334 0.313025,-2.646359 0.695611,-3.028945 1.013958,-1.013957 1.276316,-3.738406 0.302014,-3.136254 -0.454742,0.281046 -1.004297,-0.02148 -1.221232,-0.672288 -0.477407,-1.432221 -2.782636,-0.196704 -2.76108,1.479837 0.0093,0.726621 0.378265,0.617063 0.946205,-0.280992 0.790222,-1.24954 1.036598,-1.19651 1.630404,0.350925 0.43089,1.122881 0.163538,2.162277 -0.696205,2.706662 -0.767644,0.486069 -0.968217,0.890653 -0.445717,0.899075 0.532094,0.0086 0.482963,0.48235 -0.111686,1.076999 -0.583927,0.583927 -0.862631,2.784937 -0.619342,4.891133 0.519553,4.49786 0.106246,4.860547 -5.892801,5.171082 -3.84702,0.199137 -4.471899,0.514833 -4.068958,2.055683 0.383043,1.464758 1.381279,1.786283 5.109418,1.645709 L 64.5,91.650586 60.25,91.267795 C 57.9125,91.05726 56,90.506191 56,90.043196 c 0,-0.888117 8.940895,-1.922172 9.082231,-1.050402 0.04523,0.278963 0.285621,1.744706 0.53421,3.257206 C 66.059493,94.94568 65.968981,95 61.03421,95 58.265395,95 56,94.55 56,94 56,93.45 55.523442,93 54.940983,93 54.358524,93 54.160081,93.45 54.5,94 55.423454,95.49418 52.300123,95.20656 48.984751,93.492114 46.925556,92.427263 46.255547,91.49763 46.70435,90.328069 47.117956,89.250228 46.948864,88.91357 46.220112,89.363963 44.59785,90.366576 43,86.762396 43,82.100538 c 0,-3.094916 0.730942,-4.863442 3.147749,-7.616034 1.74725,-1.990008 3.749394,-3.354216 4.5,-3.066181 C 51.391487,71.703722 52,71.501354 52,70.968615 52,70.420266 55.663817,70 60.444236,70 c 7.479925,0 8.763995,-0.275045 11.244284,-2.408499 2.632742,-2.264589 2.83639,-3.02168 3.40829,-12.670798 0.60589,-10.222589 0.622301,-10.275182 4.241032,-13.591501 1.998033,-1.831061 4.426896,-3.297574 5.397473,-3.258917 1.520827,0.06057 1.488309,0.185109 -0.235315,0.90121 -1.514517,0.629225 -1.088424,0.79422 1.755341,0.679715 3.340165,-0.134493 3.561277,-0.296695 2,-1.467151 C 86.712612,37.027509 86.863369,36.948566 89.5,37.532295 97.52667,39.309337 101.05094,45.028524 100.88013,56 100.79338,61.572317 100.56717,62.728927 100,60.5 l -0.76337,-3 -0.118315,3.25 c -0.08619,2.367473 0.318058,3.25 1.488675,3.25 1.10877,0 1.40242,0.533106 0.94715,1.719519 -0.36292,0.945736 -0.3508,1.410476 0.0269,1.032755 0.37772,-0.37772 1.81219,0.198496 3.18771,1.280481 2.02702,1.594457 4.13349,1.980564 11.11609,2.03753 5.84673,0.0477 7.97245,0.35231 6.61514,0.947929 -1.64993,0.724024 -1.44857,0.850854 1.15039,0.724597 3.43493,-0.166869 6.71039,1.864415 5.68409,3.525004 -0.37407,0.605263 -0.15933,0.741972 0.51288,0.326519 1.43646,-0.887775 3.15513,3.330064 3.14605,7.720766 -0.004,1.751695 -0.90066,4.5349 -1.99341,6.1849 -1.09275,1.65 -1.98979,2.6625 -1.99341,2.25 -0.004,-0.4125 -0.93874,0.182152 -2.07804,1.321448 -1.82867,1.828668 -3.05957,2.033773 -10.50233,1.75 -4.63699,-0.176796 -8.42984,0.01605 -8.42855,0.428552 0.001,0.4125 -0.64001,0.75 -1.42509,0.75 -0.78508,0 -2.36008,1.185686 -3.5,2.634859 -1.85727,2.361141 -2.07274,3.997321 -2.07413,15.750001 -0.001,10.50987 -0.34888,13.79628 -1.750004,16.54406 -2.190071,4.29499 -6.542368,7.63668 -8.398615,6.44845 -1.711343,-1.09548 -5.878898,-1.23342 -5.223456,-0.17289 C 85.896787,137.64202 85.389919,138 84.5,138 c -0.968407,0 -1.331559,-0.46353 -0.904508,-1.15451 z M 99.560032,115 c -0.02025,-6.875 -0.185548,-10.48239 -0.367334,-8.01643 -0.181786,2.46597 -0.702997,4.71597 -1.158247,5 -0.45525,0.28404 -0.98674,4.64342 -1.181089,9.68753 -0.32065,8.32208 -0.210017,9.01639 1.195062,7.5 1.230804,-1.32832 1.540872,-4.23516 1.511608,-14.1711 z m -19.834388,10.25 c -0.34484,-1.43341 -0.606695,-1.29773 -1.44743,0.75 -0.728909,1.77536 -0.700596,2.70976 0.09768,3.22367 1.266265,0.81518 1.989554,-1.31418 1.34975,-3.97367 z M 78.148304,115 c 0.352225,2.31892 0.585627,1.05348 0.691659,-3.75 0.105198,-4.76569 0.559811,-7.25 1.326704,-7.25 1.191999,0 0.210346,-1.48751 -1,-1.51531 C 78.8,102.47627 78.05,102.18525 77.5,101.83798 c -0.639213,-0.40359 -1.030175,2.84902 -1.083637,9.01531 -0.05683,6.55448 0.122148,8.20425 0.558341,5.14671 l 0.641978,-4.5 z m 6.580863,-11.60417 c -0.332292,-0.33229 -1.194792,-0.36781 -1.916667,-0.0789 -0.797733,0.31922 -0.560776,0.55618 0.604167,0.60416 1.054166,0.0434 1.644791,-0.19292 1.3125,-0.52522 z M 50.979944,92.475834 c -0.69572,-0.838291 -1.525288,-1.263823 -1.843484,-0.945627 -0.318197,0.318196 0.08343,0.99718 0.8925,1.508853 2.116971,1.338814 2.393577,1.174992 0.950984,-0.563226 z m 2.312313,-2.466243 c -0.399293,-1.526898 -1.076108,-1.850961 -2.90638,-1.391592 -1.607015,0.403335 -2.4356,0.155369 -2.538191,-0.759591 C 47.763913,87.111284 47.59082,86.05 47.463035,85.5 47.335251,84.95 47.178792,83.985645 47.11535,83.356989 c -0.06344,-0.628656 -0.854,-1.426458 -1.756794,-1.772892 -1.281759,-0.491858 -1.39842,-0.337057 -0.53239,0.706446 0.60998,0.73498 0.871267,2.647645 0.580638,4.250365 -0.290629,1.60272 -0.233528,2.61915 0.12689,2.258732 0.360418,-0.360418 2.07528,0.210537 3.810806,1.268789 3.978511,2.425933 4.595136,2.416743 3.947757,-0.05884 z m 77.350413,-6.842924 c -0.0801,-3.482299 -0.57596,-5.833334 -1.23042,-5.833334 -0.89129,0 -1.22234,6.45245 -0.38052,7.416667 0.26284,0.301049 0.67155,1.876251 0.84327,3.25 0.0687,0.55 0.29978,1 0.51339,1 0.21362,0 0.32804,-2.625 0.25428,-5.833333 z m -20.51858,1.566666 c -0.98762,-0.980267 -1.10248,-0.865403 -0.5598,0.559795 0.37553,0.986221 0.93469,1.541221 1.24258,1.233333 0.30789,-0.307887 6.4e-4,-1.114794 -0.68278,-1.793128 z m 0.7243,-4.848193 c -0.74161,-0.469983 -0.97875,-0.861405 -0.52696,-0.869827 0.45178,-0.0084 0.0987,-0.737989 -0.78452,-1.621259 -1.30039,-1.300388 -1.36873,-1.891777 -0.35917,-3.108212 1.01969,-1.228652 0.90267,-1.753878 -0.64249,-2.883722 -2.22761,-1.628875 -3.31033,-1.040964 -1.68643,0.915723 0.62361,0.751397 0.90142,1.598581 0.61737,1.882631 -0.28405,0.284051 0.46659,2.717647 1.66808,5.407991 1.60066,3.584148 2.30187,4.389011 2.62353,3.011362 0.24144,-1.034095 -0.16779,-2.264704 -0.90941,-2.734687 z M 47.662281,74.75 c -0.277413,-0.6875 -0.504386,-0.125 -0.504386,1.25 0,1.375 0.226973,1.9375 0.504386,1.25 0.277412,-0.6875 0.277412,-1.8125 0,-2.5 z m 63.999999,-3 c -0.27741,-0.6875 -0.50439,-0.125 -0.50439,1.25 0,1.375 0.22698,1.9375 0.50439,1.25 0.27741,-0.6875 0.27741,-1.8125 0,-2.5 z M 79,61.247445 c 0,-2.406895 0.198826,-2.492041 4.456492,-1.908463 2.45107,0.335957 4.701691,0.214089 5.00138,-0.270817 0.299688,-0.484906 -0.468233,-0.689377 -1.706492,-0.454381 -2.07773,0.394312 -2.097119,0.357311 -0.25138,-0.479719 1.163302,-0.527549 2.397432,-0.536135 2.95,-0.02052 1.312253,1.224484 6.55,1.118456 6.55,-0.132592 0,-0.602945 -1.081723,-0.747557 -2.649153,-0.354157 -1.864386,0.467931 -2.439369,0.325458 -1.940983,-0.480948 0.936518,-1.515318 -4.606046,-1.549661 -6.1178,-0.03791 -0.810581,0.810581 -2.071996,0.789767 -4.7,-0.07755 -3.312911,-1.093359 -3.605128,-1.509745 -3.760167,-5.357936 L 76.663794,47.5 76.267371,51.319788 c -0.224574,2.163917 0.145547,4.472822 0.853801,5.326215 0.837047,1.00858 0.907623,1.729102 0.213555,2.180212 -0.570167,0.370582 -1.254568,1.849762 -1.52089,3.287067 -0.399153,2.154173 -0.16181,2.52897 1.35097,2.133369 C 78.33243,63.941311 79,62.850319 79,61.247445 Z m 18.712169,0.444861 c -0.275995,-0.719231 0.175065,-3.965329 1.002357,-7.213551 1.064485,-4.179523 1.179895,-6.013948 0.39482,-6.27564 C 98.499206,47.999735 98,47.195833 98,46.416667 98,45.6375 97.6625,44.999944 97.25,44.999876 c -0.4125,-6.9e-5 -0.658497,3.136351 -0.546661,6.969821 0.111837,3.83347 -0.221183,7.232314 -0.740044,7.552988 -0.556453,0.343907 -0.434777,1.160987 0.296661,1.992142 1.571346,1.785567 2.093795,1.849417 1.452213,0.177479 z M 79.186448,50.528651 c 0.222894,-1.909242 -0.07205,-3.654509 -0.65542,-3.878371 -0.671616,-0.257723 -0.925013,1.015594 -0.690819,3.471349 0.45715,4.793677 0.82127,4.903764 1.346239,0.407022 z M 79.666667,44.5 c 0,-0.825 -0.375,-1.5 -0.833334,-1.5 -0.998713,0 -1.098799,1.401201 -0.166666,2.333333 0.926919,0.926919 1,0.866019 1,-0.833333 z m -17.910436,72.83564 c 0.690926,-0.27855 1.001869,-0.91803 0.690983,-1.42105 C 62.136327,115.41157 62.583524,115 63.440983,115 64.298442,115 65,114.325 65,113.5 c 0,-0.825 0.45,-1.5 1,-1.5 0.55,0 1,-1.8 1,-4 0,-2.2 -0.45,-4 -1,-4 -0.55,0 -1,1.5382 -1,3.41821 C 65,111.44927 64.160577,114 62.833994,114 c -0.523615,0 -0.731645,-0.35659 -0.462289,-0.79241 0.269356,-0.43583 -0.485912,-0.86591 -1.678375,-0.95574 -1.30349,-0.0982 -1.690561,0.13183 -0.970611,0.57678 0.853759,0.52765 0.650107,1.08195 -0.709467,1.93102 -2.823122,1.76307 -6.165188,-2.6828 -5.331103,-7.09183 0.958981,-5.06924 2.043678,-5.78944 8.227753,-5.46295 L 67.5,102.5 l 0.292064,7.75 0.292065,7.75 -3.792065,-0.079 c -2.085635,-0.0434 -3.22676,-0.30685 -2.535833,-0.58541 z M 108.20794,110.25 108.5,102.5 l 7.16923,-0.29218 c 6.5797,-0.26815 7.22515,-0.11597 7.84933,1.85066 0.40003,1.26039 0.16697,2.61616 -0.56593,3.29218 -0.94805,0.87448 -1.07727,0.85041 -0.54032,-0.10066 0.38815,-0.6875 0.24329,-1.25 -0.32191,-1.25 -0.5652,0 -0.74506,-0.7875 -0.39969,-1.75 0.34537,-0.9625 0.31146,-1.46771 -0.0754,-1.12269 -0.38682,0.34501 -0.91732,1.80751 -1.17889,3.25 -0.34241,1.88827 -0.0501,2.62269 1.04397,2.62269 1.93096,0 1.92027,0.98289 -0.0411,3.78321 C 119.3752,115.73011 114.83624,118 111.0076,118 h -3.09173 z M 114,113.76562 c 0.825,-0.27245 2.26019,-0.10496 3.18931,0.37221 1.0189,0.52328 1.93525,0.46965 2.30902,-0.13513 0.34084,-0.55148 -0.19435,-1.07124 -1.18931,-1.15501 -0.99496,-0.0838 -2.48402,-0.22428 -3.30902,-0.31223 -0.825,-0.088 -2.0625,0.26068 -2.75,0.77475 -0.6875,0.51408 -1.25689,0.54208 -1.26531,0.0622 -0.0199,-1.13096 -1.9492,1.83995 -1.96938,3.03255 -0.008,0.49774 0.77219,0.21896 1.73469,-0.61951 0.9625,-0.83848 2.425,-1.74742 3.25,-2.01986 z m 0.49292,2.24583 c 0.35034,-0.56686 -0.0511,-0.7345 -0.94098,-0.39301 -1.73242,0.66479 -2.04939,1.38156 -0.61096,1.38156 0.51754,0 1.21592,-0.44485 1.55194,-0.98855 z M 110.70573,105.75 c -0.23835,-1.2375 -0.43337,-0.225 -0.43337,2.25 0,2.475 0.19502,3.4875 0.43337,2.25 0.23836,-1.2375 0.23836,-3.2625 0,-4.5 z M 59,116 c 0,-0.55 0.476558,-1 1.059017,-1 0.582459,0 0.780902,0.45 0.440983,1 -0.339919,0.55 -0.816476,1 -1.059017,1 C 59.198442,117 59,116.55 59,116 Z M 52.320661,105.57712 C 52.419298,103.96953 53.175,102.43385 54,102.1645 c 1.178888,-0.3849 1.255443,-0.18734 0.357608,0.92288 -0.628315,0.77694 -1.384017,2.31262 -1.679338,3.41262 -0.337348,1.25654 -0.470282,0.91348 -0.357609,-0.92288 z M 80.407738,92.748766 c -2.758782,-2.170058 -5.436777,-7.391964 -5.3677,-10.466647 0.02944,-1.310534 0.431339,-1.061065 1.518764,0.94274 0.8133,1.498672 2.431078,3.234541 3.595062,3.857486 1.253584,0.670898 1.688348,1.39714 1.066478,1.781476 -1.420988,0.878219 0.643589,3.640829 3.36683,4.505152 1.481145,0.470098 2.079495,0.22423 2.079495,-0.854483 0,-0.954103 -0.937376,-1.51449 -2.533334,-1.51449 -1.672393,0 -2.196776,-0.336557 -1.543005,-0.990328 0.620829,-0.620829 2.150129,-0.6577 4.098822,-0.09882 2.042572,0.585801 3.477994,0.522006 4.186044,-0.186044 0.770065,-0.770065 1.704052,-0.527849 3.273072,0.848823 C 95.355803,91.633133 96.014878,91.9375 95.612877,91.25 95.153208,90.463876 95.48242,90 96.5,90 97.389919,90 97.826414,89.528149 97.469989,88.951442 97.02698,88.234637 96.375527,88.273377 95.410972,89.073886 94.446177,89.874595 94,89.901076 94,89.157628 c 0,-0.597993 0.891556,-1.564407 1.981236,-2.147586 1.089679,-0.583178 2.646662,-2.286511 3.459962,-3.785183 1.087422,-2.003805 1.489322,-2.253274 1.518762,-0.94274 0.061,2.714896 -2.436548,7.997569 -4.758931,10.065842 -2.221593,1.978512 -4.687697,1.362658 -3.800587,-0.949112 0.614462,-1.601262 -0.962202,-1.916953 -1.910523,-0.382537 -0.345464,0.558971 -1.047021,0.757414 -1.559017,0.440983 C 88.418906,91.140864 88,91.613848 88,92.508371 88,93.6797 88.559608,93.957163 90,93.5 c 1.1,-0.349126 2,-0.191951 2,0.349279 0,1.919774 -8.816679,1.082762 -11.592262,-1.100513 z M 78.16845,86.76845 c -0.742068,-0.742068 -0.872211,-0.351636 -0.437237,1.311709 0.353609,1.352204 0.806902,1.805497 1.05655,1.056551 0.240481,-0.721441 -0.03821,-1.787158 -0.619313,-2.36826 z M 99,87 c 0,-0.55 -0.198442,-1 -0.440983,-1 -0.242541,0 -0.719098,0.45 -1.059017,1 -0.339919,0.55 -0.141476,1 0.440983,1 C 98.523442,88 99,87.55 99,87 Z M 86,81.940983 c 0,-0.582459 -0.399012,-0.812414 -0.886693,-0.51101 -2.710718,1.675316 -3.999762,-6.79297 -1.461043,-9.598223 2.106041,-2.327149 6.559922,-2.359756 8.63824,-0.06324 1.57616,1.741637 1.767051,4.507269 0.405107,5.869212 -0.382586,0.382586 -0.68872,1.183111 -0.680298,1.778945 C 92.023735,80.0125 92.466844,79.825 93,79 93.585076,78.094659 93.975445,77.97307 93.984687,78.693296 94.004707,80.253421 90.0461,83 87.777494,83 86.799872,83 86,82.523442 86,81.940983 Z m 3.5,-0.706296 C 90.05,80.830609 90.554803,80.05 90.621784,79.5 c 0.06698,-0.55 0.413055,-2.2375 0.769053,-3.75 0.400056,-1.699692 0.23552,-2.75 -0.430802,-2.75 -0.592938,0 -0.79314,-0.5625 -0.444895,-1.25 0.348246,-0.6875 -0.05358,-0.406059 -0.892938,0.625425 -1.67459,2.057886 -5.238772,1.512989 -4.044717,-0.618362 0.387337,-0.691385 -0.05068,-0.549457 -0.973362,0.315396 C 82.921885,73.649254 83.303967,77 85.166006,77 c 0.523615,0 0.669376,0.45734 0.323913,1.016312 -0.345464,0.558971 -1.047021,0.757414 -1.559017,0.440983 C 83.418906,78.140864 83,78.406669 83,79.047972 c 0,0.641303 0.637759,0.921275 1.417241,0.622159 0.779483,-0.299115 1.66536,0.10274 1.968615,0.893011 0.607104,1.582087 1.58713,1.793423 3.114144,0.671545 z M 87,78.106989 C 87,77.065833 86.325,75.954956 85.5,75.638374 84.675,75.321791 84,74.528902 84,73.876397 84,73.132068 84.681389,73.306674 85.828741,74.345012 86.834548,75.255256 88.142419,76 88.735121,76 c 0.592702,0 0.842284,0.9 0.554628,2 C 88.626342,80.536871 87,80.612862 87,78.106989 Z m 48.66667,-11.773656 c -1.21466,-1.21466 -0.69095,-2.279879 0.83333,-1.694959 0.825,0.316582 1.5,0.977459 1.5,1.468615 0,1.048404 -1.37764,1.182041 -2.33333,0.226344 z M 81.654508,62.75 C 81.909448,62.3375 84.764919,62 88,62 c 3.235081,0 6.090552,0.3375 6.345492,0.75 C 94.600431,63.1625 91.744959,63.5 88,63.5 c -3.744959,0 -6.600431,-0.3375 -6.345492,-0.75 z M 52.666667,62.333333 c -1.072212,-1.072212 -0.767272,-4.153122 0.487841,-4.928825 0.7153,-0.442079 0.883063,-0.274316 0.440984,0.440984 C 53.203052,58.480471 53.358524,59 53.940983,59 54.523442,59 55,58.55 55,58 c 0,-0.550836 2.133529,-0.921528 4.75,-0.825293 l 4.75,0.174707 -4.25,0.382791 C 57.522365,57.977879 56,58.601855 56,59.474164 56,60.221707 55.549092,60.983333 54.997981,61.166667 54.446871,61.35 56.475317,61.5 59.505638,61.5 c 3.995086,0 5.378751,-0.34362 5.033404,-1.25 -0.553113,-1.451672 0.376739,-1.589412 2.339073,-0.346491 C 69.674445,61.674675 66.776627,63 60.10765,63 56.381776,63 53.033333,62.7 52.666667,62.333333 Z m 56.000003,0 C 107.3869,61.053565 108.01558,60 110.05902,60 c 1.13246,0 1.7809,0.45 1.44098,1 -0.3853,0.623431 1.56946,0.994234 5.19098,0.984687 3.72165,-0.0098 5.31131,-0.330519 4.42392,-0.892513 -1.10664,-0.700851 -0.95587,-1.106919 0.75,-2.019871 2.19013,-1.17212 2.62306,-0.50749 1.52811,2.34591 C 122.92276,62.64366 121.27073,63 116.05968,63 c -3.69949,0 -7.02635,-0.3 -7.39301,-0.666667 z M 112,58.557498 C 112,57.374046 113.10073,57 116.58333,57 c 5.90202,0 5.55535,2.367773 -0.41105,2.807498 C 112.93018,60.046441 112,59.767764 112,58.557498 Z M 108.11168,53 107.89516,47 h 3.10208 C 116.43886,47 123,51.991599 123,56.131483 c 0,1.32101 -1.42441,0.256147 -1.625,-1.214816 -0.27647,-2.027423 -0.42571,-2.11947 -1.70928,-1.054202 -0.73386,0.609045 -2.95914,1.315388 -4.94508,1.569651 -3.52443,0.451238 -3.62061,0.373852 -4.02059,-3.234909 -0.22538,-2.033464 -0.33243,-1.334707 -0.2379,1.552793 0.1112,3.396923 -0.23507,5.25 -0.98104,5.25 -0.71839,0 -1.23451,-2.261348 -1.36943,-6 z m 6.47165,0 C 115.3625,53 116,52.811804 116,52.581787 c 0,-0.230016 0.30147,-1.203837 0.66994,-2.164044 0.4374,-1.139841 0.28783,-1.509676 -0.4309,-1.065476 -0.60547,0.374196 -1.3835,0.223016 -1.72896,-0.335955 C 113.70233,47.709339 112,47.698276 112,49 c 0,0.55 0.50625,0.8875 1.125,0.75 0.61875,-0.1375 1.33135,0.312806 1.58356,1.00068 0.29383,0.801385 -0.11032,1.032381 -1.125,0.643011 -1.17907,-0.452449 -1.56339,-0.0056 -1.50461,1.74932 0.0434,1.296344 0.30592,1.794489 0.58333,1.106989 0.27741,-0.6875 1.14189,-1.25 1.92105,-1.25 z M 120,52.059017 c 0,-0.517541 -0.45,-1.219098 -1,-1.559017 -0.55,-0.339919 -1,0.08352 -1,0.940983 C 118,52.298442 118.45,53 119,53 c 0.55,0 1,-0.423442 1,-0.940983 z M 64.726287,56.415601 C 63.200745,55.588222 61.552748,55.158383 61.064072,55.460401 60.313025,55.924574 60.286677,55.086446 60.955292,52 c 0.05957,-0.275 0.745047,0.340746 1.523276,1.368325 1.363795,1.800766 1.409307,1.793277 1.258624,-0.207094 -0.08599,-1.141481 -0.363011,-1.868745 -0.615613,-1.616144 -0.252602,0.252602 -1.343099,-0.329205 -2.423328,-1.292905 -1.899351,-1.69446 -1.940085,-1.675233 -1.236524,0.583645 0.660619,2.121004 0.537149,2.233939 -1.342518,1.227972 -1.800607,-0.963656 -2.152438,-0.779585 -2.703036,1.414173 C 54.841962,55.76581 53,57.095751 53,55.222506 53,51.782818 59.951203,47 64.95034,47 67.980231,47 68,47.035653 68,52.5 c 0,3.025 -0.1125,5.481983 -0.25,5.459962 -0.1375,-0.02202 -1.498171,-0.716983 -3.023713,-1.544361 z M 66.705733,49.75 C 66.46738,48.5125 66.272364,49.525 66.272364,52 c 0,2.475 0.195016,3.4875 0.433369,2.25 0.238353,-1.2375 0.238353,-3.2625 0,-4.5 z M 56,54.75 c 0,-0.779167 0.6875,-1.416667 1.527778,-1.416667 1.728729,0 1.472822,1.833134 -0.340278,2.4375 C 56.534375,55.988542 56,55.529167 56,54.75 Z m 20,88.3103 c 0,-0.82424 -2.934917,-3.622 -3.076511,-2.93274 -0.04208,0.20484 -0.213798,1.06819 -0.381592,1.91856 -0.181897,0.92183 0.454661,1.60334 1.576511,1.68785 C 75.153284,143.81192 76,143.50877 76,143.0603 Z m 27.3973,-0.65327 c 0.82564,-2.15158 -0.72392,-2.37072 -3.10872,-0.43963 l -2.201411,1.7826 h 2.397391 c 1.31857,0 2.6293,-0.60434 2.91274,-1.34297 z m -34.983503,-7.26755 c 0.292506,-0.47329 0.293007,-1.09934 0.0011,-1.39124 C 67.630588,132.96392 64,134.08921 64,135.11663 c 0,1.13664 3.713556,1.15586 4.413797,0.0229 z m -1.799156,-6.13059 c 0.09914,-1.97129 -0.259152,-2.6988 -1.159074,-2.35347 -1.095093,0.42023 -1.227987,2.00676 -0.524467,6.26125 0.246668,1.4917 1.566002,-1.57069 1.683541,-3.90778 z m 44.980849,-0.1634 c 0.44208,-0.7153 0.27432,-0.88306 -0.44098,-0.44098 -0.70232,0.43405 -1.15451,0.0376 -1.15451,-1.01216 0,-0.94913 -0.28059,-1.44509 -0.62354,-1.10214 -0.64813,0.64813 0.2045,3.70979 1.03314,3.70979 0.2598,0 0.79345,-0.51953 1.18589,-1.15451 z m -51.360321,-1.60683 c -1.245657,-0.20991 -1.978852,-0.84437 -1.629323,-1.40992 0.35298,-0.57114 -0.374695,-0.48763 -1.636799,0.18783 -1.863753,0.99745 -2.180006,0.97043 -1.75894,-0.15024 0.296008,-0.78783 -1.104228,-2.63653 -3.307131,-4.36633 -2.101274,-1.65 -4.105143,-3.82141 -4.453043,-4.82536 -0.3479,-1.00395 -0.829048,-1.62886 -1.069218,-1.38869 -0.240169,0.24017 0.0755,1.73658 0.701497,3.32536 0.625993,1.58878 1.11945,4.09914 1.096571,5.57858 -0.04844,3.13205 1.032052,3.55874 8.821217,3.48353 3.025,-0.0292 4.480826,-0.22485 3.235169,-0.43476 z M 53,126.26029 c 0,-0.60684 -0.977556,-0.83738 -2.25,-0.53063 -1.823825,0.43969 -2.017743,0.29387 -1.023794,-0.76982 0.968276,-1.03622 0.968276,-1.62451 0,-2.7967 -1.075823,-1.3024 -0.952632,-1.31408 1.004484,-0.0953 2.303932,1.43476 3.711001,3.82381 2.792849,4.74196 C 53.235592,127.09774 53,126.85046 53,126.26029 Z m 69.30419,0.42318 c -0.27745,-0.44909 -0.74357,-0.57743 -1.03581,-0.28518 -0.29224,0.29224 -1.25968,0.1451 -2.14986,-0.32697 -1.01237,-0.53687 -2.03171,-0.41107 -2.72179,0.3359 -0.84067,0.90997 -0.2089,1.18214 2.65433,1.1435 2.06668,-0.0279 3.53059,-0.41816 3.25313,-0.86725 z m 5.49303,-3.07282 c -0.16347,-1.62614 -0.87097,-3.07003 -1.57222,-3.20864 -0.70125,-0.1386 -0.81735,-0.0245 -0.25799,0.25366 0.66281,0.32956 0.68377,1.12834 0.0602,2.29352 -0.52625,0.98331 -0.67266,2.07201 -0.32534,2.41933 0.3473,0.34731 0.10646,0.63148 -0.5352,0.63148 C 124.525,126 124,125.55 124,125 c 0,-0.55 -0.5051,-1 -1.12244,-1 -0.7989,0 -0.77967,0.41302 0.0667,1.43283 0.65403,0.78805 2.08038,1.36569 3.16967,1.28364 1.56895,-0.11819 1.91876,-0.76361 1.6833,-3.10582 z m -81.7995,-4.73821 c 0.0013,-0.34515 -0.707017,-1.21621 -1.573935,-1.93569 -1.291386,-1.07176 -1.721274,-1.07344 -2.37895,-0.009 -0.65098,1.05331 -0.905216,1.04116 -1.344837,-0.0643 -0.32819,-0.82525 -0.573256,-0.53194 -0.621051,0.74333 -0.06421,1.71329 0.480599,2.08661 2.918773,2 1.648745,-0.0586 2.998745,-0.38888 3,-0.73404 z m 84.52159,-1.8116 C 129.87813,115.04065 128,115.08329 128,117.11803 c 0,0.55 0.45,0.72189 1,0.38197 0.55,-0.33992 1,0.15852 1,1.10765 0,0.94913 0.26609,1.4596 0.59131,1.13438 0.32521,-0.32522 0.29282,-1.53176 -0.072,-2.68119 z m 5.46538,-4.00197 c -0.01,-2.3317 -0.3072,-3.09839 -0.86181,-2.22346 -1.04348,1.64618 -2.1703,1.7059 -3.12234,0.16547 -0.47356,-0.76624 -0.91117,-0.45064 -1.26818,0.91459 -0.5608,2.14448 0.6594,2.87769 1.77772,1.06822 0.8136,-1.31643 2.48992,-0.27698 2.48992,1.54394 0,0.84214 -0.60386,1.17788 -1.5,0.834 -0.96343,-0.36971 -1.5,0.0203 -1.5,1.0904 0,1.01735 0.45551,1.38448 1.16994,0.94294 0.8087,-0.4998 0.96233,-0.13207 0.49755,1.19099 -0.65189,1.85565 -0.62657,1.85483 0.83006,-0.0271 0.82635,-1.06762 1.49556,-3.54262 1.48714,-5.5 z m -92.176725,-7.32555 c 0.588612,-2.13177 0.638113,-3.50901 0.11449,-3.18539 -0.50735,0.31356 -0.950979,-0.0189 -0.985841,-0.73891 -0.106402,-2.197352 -1.600177,2.4172 -2.327793,7.19098 -0.620806,4.07302 -0.550766,4.3097 0.738157,2.49441 0.783223,-1.10307 1.890668,-3.69556 2.460987,-5.76109 z M 133.82977,106.25 c -0.0807,-0.9625 -0.0685,-2.65 0.0271,-3.75 0.14359,-1.65275 0.33703,-1.74176 1.11418,-0.51261 0.745,1.17832 0.90648,1.03686 0.7771,-0.68072 -0.0898,-1.19246 -0.51991,-1.947731 -0.95574,-1.678375 C 134.35659,99.897651 134,99.614919 134,99 c 0,-0.614919 -0.49804,-0.810226 -1.10676,-0.434017 -0.76531,0.472988 -0.7816,0.884981 -0.0528,1.33541 0.67439,0.416797 0.71835,1.182117 0.12208,2.124997 -0.77794,1.23014 -0.93443,1.23955 -0.94722,0.0569 -0.008,-0.77916 -0.24234,-1.18963 -0.51982,-0.91215 -0.52491,0.52491 1.40494,6.82882 2.09055,6.82882 0.21471,0 0.32439,-0.7875 0.24373,-1.75 z m 1.75863,-1.99494 c -1.07549,-1.07549 -1.64645,0.43075 -0.89148,2.35181 0.7082,1.80207 0.76169,1.80519 1.11193,0.0649 0.20237,-1.00555 0.10317,-2.09305 -0.22045,-2.41667 z M 43,99.031385 C 43,98.498646 42.325,98.321791 41.5,98.638374 40.675,98.954956 40,99.390833 40,99.606989 40,99.823145 40.675,100 41.5,100 42.325,100 43,99.564123 43,99.031385 Z M 39,95.059017 C 39,93.879157 37.049646,92.617021 36.333333,93.333333 35.617021,94.049646 36.879157,96 38.059017,96 38.576558,96 39,95.576558 39,95.059017 Z m 103.50332,-0.05364 c -0.33809,-0.547042 -1.52371,-1.481104 -2.63471,-2.075693 -1.83647,-0.982849 -1.91907,-0.89248 -0.90912,0.994622 C 139.57047,95.065938 140.75609,96 141.5942,96 c 0.83811,0 1.24721,-0.44758 0.90912,-0.994623 z M 35,94 c 0,-0.55 -0.198442,-1 -0.440983,-1 -0.242541,0 -0.719098,0.45 -1.059017,1 -0.339919,0.55 -0.141476,1 0.440983,1 C 34.523442,95 35,94.55 35,94 Z m 108.66228,-4.25 c -0.27741,-0.6875 -0.50439,-0.125 -0.50439,1.25 0,1.375 0.22698,1.9375 0.50439,1.25 0.27741,-0.6875 0.27741,-1.8125 0,-2.5 z m -2,-1 c -0.27741,-0.6875 -0.50439,-0.125 -0.50439,1.25 0,1.375 0.22698,1.9375 0.50439,1.25 0.27741,-0.6875 0.27741,-1.8125 0,-2.5 z M 35.704522,88.495113 c 0.112486,-0.03895 -0.675014,-0.620101 -1.75,-1.291442 C 32.201128,86.108659 32,86.253784 32,88.613971 c 0,2.349247 0.187359,2.487511 1.75,1.291441 0.9625,-0.736712 1.842035,-1.371347 1.954522,-1.410299 z M 143.44012,85.25 c -0.25693,-5.534267 -0.33948,-5.75064 -1.68176,-4.408359 -0.98886,0.988854 -0.93796,1.436754 0.25,2.2 1.32117,0.848836 1.32022,1.072641 -0.008,1.958359 -1.33333,0.888889 -1.33333,1.10941 0,1.984687 0.825,0.541578 1.51525,0.991578 1.5339,1 0.0186,0.0084 -0.0236,-1.222187 -0.0938,-2.734687 z M 34.838163,78.666667 C 34.581051,74.848916 32,73.993177 32,77.725684 c 0,1.340256 0.439774,2.120555 1,1.774316 0.55,-0.339919 1,0.08352 1,0.940983 C 34,81.298442 34.239096,82 34.531326,82 c 0.292229,0 0.430305,-1.5 0.306837,-3.333333 z M 35.25,72.337719 c -0.6875,-0.277412 -1.8125,-0.277412 -2.5,0 -0.6875,0.277413 -0.125,0.504386 1.25,0.504386 1.375,0 1.9375,-0.226973 1.25,-0.504386 z M 38.5,70 c 0.339919,-0.55 0.02898,-1.014256 -0.690983,-1.03168 -0.719959,-0.01742 -0.0692,-0.956645 1.446133,-2.087158 1.515333,-1.130513 2.504461,-2.461103 2.198062,-2.956866 -0.306398,-0.495763 0.108451,-0.645996 0.921887,-0.333851 1.131476,0.434188 1.337459,0.02638 0.876674,-1.735664 -0.331265,-1.26676 -0.786866,-1.749502 -1.012447,-1.07276 -0.22558,0.676742 -0.821712,0.976079 -1.324736,0.665193 C 40.411565,61.136327 40,61.583524 40,62.440983 40,63.298442 39.523442,64 38.940983,64 c -0.582459,0 -0.777635,0.455285 -0.433724,1.011745 0.347226,0.561823 -0.731058,1.283015 -2.424752,1.621754 -1.677525,0.335505 -2.805791,1.005219 -2.507259,1.488255 C 33.87378,68.604789 33.641476,69 33.059017,69 32.476558,69 32,69.45 32,70 c 0,0.55 1.323442,1 2.940983,1 1.617541,0 3.219098,-0.45 3.559017,-1 z M 141,70 c 0,-0.55 -0.675,-1 -1.5,-1 -0.825,0 -1.5,0.45 -1.5,1 0,0.55 0.675,1 1.5,1 0.825,0 1.5,-0.45 1.5,-1 z M 135.9922,53.25 C 135.99649,52.5625 135.55,52 135,52 c -0.55,0 -1.03655,0.5625 -1.08122,1.25 -0.0447,0.6875 -0.6614,-0.06506 -1.37052,-1.672359 -1.27709,-2.894688 -4.94434,-4.773387 -3.87424,-1.984739 0.29455,0.767586 0.9252,1.154791 1.40145,0.860456 1.04487,-0.645765 2.36038,4.032409 1.51745,5.396301 -0.32746,0.529831 0.52667,0.442907 1.89805,-0.193165 1.37138,-0.636072 2.49694,-1.718994 2.50123,-2.406494 z M 43.3219,49.396476 c -0.26808,-0.698605 -1.122592,-1.026452 -1.898915,-0.728549 -1.707781,0.655337 -1.07754,1.99874 0.937686,1.99874 0.796756,0 1.229309,-0.571586 0.961229,-1.270191 z M 135.36163,49.5 c 0.31658,-0.825 0.18787,-1.5 -0.28603,-1.5 -0.47389,0 -1.12064,0.675 -1.43723,1.5 -0.31658,0.825 -0.18787,1.5 0.28603,1.5 0.47389,0 1.12064,-0.675 1.43723,-1.5 z m -7.58023,-5.483647 c -0.0738,-2.597209 -0.24256,-2.767934 -1.30267,-1.318152 -0.90194,1.233472 -0.92743,1.997553 -0.0983,2.94561 1.51535,1.732677 1.49709,1.753888 1.40095,-1.627458 z M 48.683114,40.8125 c -0.319226,-0.797733 -0.556183,-0.560776 -0.604167,0.604167 -0.04342,1.054166 0.192928,1.644791 0.52522,1.3125 0.332291,-0.332292 0.367818,-1.194792 0.07895,-1.916667 z M 125.1038,40.703799 c -1.28349,-1.283486 -2.58505,-0.291503 -1.63484,1.245982 0.36808,0.595563 1.12735,0.799712 1.68727,0.453663 0.683,-0.422119 0.66575,-0.981465 -0.0524,-1.699645 z M 112,38 c 0,-0.55 -0.7875,-1.006145 -1.75,-1.013655 -0.9625,-0.0075 -2.875,-0.293729 -4.25,-0.636044 -1.73068,-0.430863 -2.19227,-0.298855 -1.5,0.428979 0.55,0.578252 2.125,1.25319 3.5,1.499862 1.375,0.246672 2.8375,0.509776 3.25,0.584676 C 111.6625,38.938718 112,38.55 112,38 Z M 70.5,36 c -1.704801,-0.732578 -1.544902,-0.869804 1.083333,-0.929715 1.857556,-0.04234 3.083334,-0.596984 3.083334,-1.39515 0,-1.091653 -0.630762,-1.099379 -3.583334,-0.04389 C 69.1125,34.335777 66.6,34.976822 65.5,35.055787 63.815685,35.176698 63.894606,35.325735 66,36 c 1.375,0.440352 3.4,0.813868 4.5,0.830035 l 2,0.02939 z M 60,32.464816 C 60,32.209167 59.1,32 58,32 c -1.131483,0 -2,0.666667 -2,1.535184 0,1.225306 0.403701,1.319129 2,0.464816 1.1,-0.588702 2,-1.279535 2,-1.535184 z m 51.85034,2.052195 c -0.92297,-0.922976 -8.89778,-2.249268 -9.32902,-1.551511 -0.25682,0.415547 -0.28511,0.930806 -0.0629,1.14502 0.54104,0.521476 9.91248,0.927082 9.39188,0.406491 z M 101,33 c 0,-0.55 -0.7875,-0.993109 -1.75,-0.984687 C 97.754453,32.028399 97.718103,32.171574 99,33 c 1.88721,1.21961 2,1.21961 2,0 z M 94.819768,25.712221 C 92.818369,23.764368 88.68212,23.729234 89.42548,25.666401 89.909229,26.92703 89.404843,27.13464 86.761095,26.763084 84.967493,26.51101 82.7125,25.963049 81.75,25.545394 c -1.311012,-0.568883 -1.750032,-0.293545 -1.750127,1.097617 -1.12e-4,1.65375 0.771008,1.833708 7.045694,1.644276 5.840917,-0.176337 7.164718,0.08018 7.741096,1.5 0.586686,1.445217 0.746629,1.361043 1.024075,-0.538947 0.18084,-1.238413 -0.265097,-2.829667 -0.99097,-3.536119 z m -9.090601,3.683612 c -0.332292,-0.332291 -1.194792,-0.367818 -1.916667,-0.07895 -0.797733,0.319226 -0.560776,0.556183 0.604167,0.604167 1.054166,0.04342 1.644791,-0.192928 1.3125,-0.52522 z m 2,-4 c -0.332292,-0.332291 -1.194792,-0.367818 -1.916667,-0.07895 -0.797733,0.319226 -0.560776,0.556183 0.604167,0.604167 1.054166,0.04342 1.644791,-0.192928 1.3125,-0.52522 z"
         id="path5" />
    </g>
  </g>
</svg>
